<svg width="50" height="50" version="1.1" viewBox="0 0 13.229 13.229" xmlns="http://www.w3.org/2000/svg">
 <g transform="translate(0 -283.77)">
  <g stroke-width=".18987">
   <path d="m8.5625 286.78a2.4968 2.4968 0 1 0 2.4949 2.4949 2.4987 2.4987 0 0 0-2.4949-2.4949zm0 4.3423a1.8474 1.8474 0 1 1 1.8474-1.8474 1.8493 1.8493 0 0 1-1.8474 1.8474z"/>
   <path d="m3.3924 284.28a2.4949 2.4949 0 1 0 2.4892 2.4948 2.4968 2.4968 0 0 0-2.4892-2.4948zm0 4.3404a1.8474 1.8474 0 1 1 1.8455-1.8455 1.8493 1.8493 0 0 1-1.8455 1.8455z"/>
   <path d="m3.8747 295.24a0.60947 0.60947 0 0 1 0.58479 0c1.6708 0.89047 2.4873 0.89238 2.7986 0.83352 0 0 2.529-0.0836 5.1264-2.4968l0.20885-0.20885a0.59239 0.59239 0 0 0 0.09494-0.7139 0.73669 0.73669 0 0 0-1.0671-0.23544l-0.80314 0.44998a13.291 13.291 0 0 0-1.5436 0.99681 2.6259 2.6259 0 0 1-3.2277 0.0893c1.162 0.4082 2.2784 0.0779 2.7873-0.33606 0.46138-0.36456 0.44429-0.80314-0.44809-0.86201-1.3651-0.093-1.798-0.34176-1.9347-0.48225a1.5683 1.5683 0 0 0-0.41201-0.34747c-1.8417-1.0291-3.6606 0.59618-3.6606 0.59618l0.10443 0.18987 1.1753 2.1835 0.18987 0.33796a0.024683 0.024683 0 0 0 0.028484 0.0114"/>
  </g>
  <polygon transform="matrix(.18987 0 0 .18987 .75514 284.11)" points="14.89 59.31 8.95 63 0.99 48.09 7.07 44.97"/>
  <text x="2.3768551" y="287.38016" fill="#000000" font-family="sans-serif" font-size="3.0061px" letter-spacing="0px" stroke-width=".075151" word-spacing="0px" style="line-height:1.25" xml:space="preserve"><tspan x="2.3768551" y="287.38016" stroke-width=".075151">ꜩ</tspan></text>
  <text transform="rotate(30.535)" x="153.24059" y="245.51224" fill="#000000" font-family="sans-serif" font-size="3.0061px" letter-spacing="0px" stroke-width=".075151" word-spacing="0px" style="line-height:1.25" xml:space="preserve"><tspan x="153.24059" y="245.51224" stroke-width=".075151">ꜩ</tspan></text>
 </g>
</svg>
