<svg width="50" height="50" version="1.1" viewBox="0 0 13.229 13.229" xmlns="http://www.w3.org/2000/svg">
 <g transform="translate(0 -283.77)">
  <g aria-label="ꜩ">
   <path d="m2.485 286.36v-2.0599h2.319v2.0599h6.3158v1.6194l-2.7077 2.8114q1.0429 0.0583 1.6065 0.20729 0.80324 0.21377 1.3668 0.94576 0.51174 0.66721 0.51174 1.5871 0 1.4381-1.1012 2.183-1.1077 0.75142-3.213 0.75142-0.79029 0-1.4964-0.1166-0.74495-0.12307-1.4769-0.36275v-1.9239q0.68665 0.34332 1.3862 0.5247 0.6996 0.18137 1.3603 0.18137 0.9911 0 1.5158-0.34332 0.53118-0.34332 0.53118-0.98462 0-0.66074-0.54413-1.0041-0.53766-0.33684-1.5935-0.33684h-0.27207v1.5158h-1.9887q-1.3733 0-1.9498-0.57005-0.57004-0.57652-0.57004-1.9498v-3.077h-1.153v-1.6583zm2.319 1.6583v3.077q0 0.50527 0.20081 0.68665 0.20081 0.1749 0.79677 0.1749h0.25263v-1.4446l2.3968-2.494z" stroke-width=".33166" style="font-feature-settings:normal;font-variant-caps:normal;font-variant-ligatures:normal;font-variant-numeric:normal"/>
  </g>
 </g>
</svg>
