<svg width="50" height="50" version="1.1" viewBox="0 0 13.229 13.229" xmlns="http://www.w3.org/2000/svg">
 <g transform="translate(0 -283.77)">
  <g aria-label="ꜩ">
   <path d="m7.4621 290.54q0.6379 0 1.4216 0.34021 0.60145 0.26124 1.1178 0.91736 0.4921 0.63183 0.4921 1.4702 0 1.3426-0.92344 2.0777-0.92344 0.73511-2.6245 0.73511-0.57107 0-1.1725-0.10936-0.60753-0.11543-1.2515-0.34021v-1.1847q0.51032 0.29768 1.1178 0.44956 0.60753 0.15189 1.2697 0.15189 1.1543 0 1.7557-0.45565 0.60753-0.45564 0.60753-1.3244 0-0.80194-0.55892-1.2576-0.55285-0.44957-1.5674-0.44957h-1.0571v-1.0085l2.6124-3.0316h-4.0218v3.6694q0 0.83231 0.22478 1.0692 0.23086 0.23694 0.92951 0.23694h1.1482v0.93559h-1.1482q-1.294 0-1.7861-0.47995-0.4921-0.48602-0.4921-1.7618v-3.6938h-0.82016v-0.86876h0.82016v-1.9319h1.1239v1.9319h5.2794v1.0206z" stroke-width=".31105" style="font-feature-settings:normal;font-variant-caps:normal;font-variant-ligatures:normal;font-variant-numeric:normal"/>
  </g>
 </g>
</svg>
